<svg xmlns="http://www.w3.org/2000/svg" viewBox="0 0 512 512">
  <path d="M96 242 256 111l160 131" fill="none" stroke="#fbf8f0" stroke-width="31" stroke-linecap="round" stroke-linejoin="round"/>
  <path d="M139 227v190h234V227L256 132z" fill="#fbf8f0"/>
  <path d="M213 417v-99c0-24 19-43 43-43s43 19 43 43v99" fill="#e89b62"/>
  <rect x="168" y="264" width="40" height="49" rx="11" fill="#dce9d5"/>
  <rect x="304" y="264" width="40" height="49" rx="11" fill="#dce9d5"/>
  <path d="M256 91c-5-34 21-56 54-48-4 32-22 48-54 48Zm0 0c-27-26-58-19-65 11 27 14 48 10 65-11Z" fill="#e89b62"/>
</svg>
